# xmcd CD Database Entry
#
# Track frame offsets:
# 150
# 21010
# 38135
# 61218
# 74585
# 95488
# 119203
# 134253
# 148970
# 171790
#
# Disc length: 2501 seconds
#
# Revision: 2
# Processed by: cddbd v1.4PL0 Copyright (c) Steve Scherf et al.
# Submitted via: tcd 2.0b
#
DISCID=9809c30a
DTITLE=The Scene - Blauw
DYEAR=1900
DGENRE=
TTITLE0=Blauw
TTITLE1=Iedereen Is Van De Wereld
TTITLE2=Rigoreus
TTITLE3=De Stem Die Fluistert In De Nacht
TTITLE4=Geloof
TTITLE5=Brand
TTITLE6=Tijd Is Kort
TTITLE7=Wereld
TTITLE8=Sex Of Fantasie
TTITLE9=Opgejaagd
EXTD=
EXTT0=
EXTT1=
EXTT2=
EXTT3=
EXTT4=
EXTT5=
EXTT6=
EXTT7=
EXTT8=
EXTT9=
PLAYORDER=
